<svg width="512" height="512" viewBox="0 0 512 512" fill="none" xmlns="http://www.w3.org/2000/svg">
<rect width="512" height="512" fill="#121212"/>
<g clip-path="url(#clip0_369_41)">
<path d="M425.82 269.935C372.985 303.861 333.658 329.006 327.626 321.617C324.457 317.737 395.167 258.088 463 202.334C462.168 192.234 460.167 182.105 457.086 172.257C418.094 201.238 381.294 228.589 369.407 237.4C340.74 258.651 302.187 293.125 296.156 285.735C290.125 278.346 335.425 240.777 356.015 223.717C365.332 215.987 405.156 181.454 445.943 145.957C441.825 138.42 437.05 131.252 431.632 124.589C388.566 158.589 346.173 192.16 336.71 200.009C317.462 215.958 270.819 254.623 264.802 247.233C258.786 239.844 299.778 208.361 326.005 184.104C337.454 173.546 374.124 139.723 411.844 104.923C404.528 99.1031 396.54 94.0978 387.953 90.1439C317.959 148.815 239.334 213.203 236.019 209.131C229.988 201.726 262.072 167.682 305.298 121.967C317.535 108.995 330.781 94.7938 344.698 80.0592C343.617 80.0296 342.522 80.0148 341.412 80.0148C298.536 80.0148 271.462 101.221 255.763 120.398C240.02 101.206 212.946 80 170.055 80C97.0383 80 48 148.727 48 212.922C48 306.379 224.643 431.615 244.781 445.579C248.081 447.86 251.908 449.015 255.719 449.015C259.531 449.015 263.357 447.875 266.657 445.579C284.137 433.466 419.409 337.58 454.91 251.365C444.804 257.807 435.034 264.026 425.82 269.95V269.935Z" fill="#FA0000"/>
</g>
<defs>
<clipPath id="clip0_369_41">
<rect width="415" height="369" fill="white" transform="translate(48 80)"/>
</clipPath>
</defs>
</svg>
