<svg width="1417" height="427" viewBox="0 0 1417 427" fill="none" xmlns="http://www.w3.org/2000/svg">
<g clip-path="url(#clip0_369_14)">
<g clip-path="url(#clip1_369_14)">
<path d="M433.355 219.789C372.753 259.048 327.646 288.145 320.728 279.594C317.093 275.105 398.196 206.08 476 141.562C475.045 129.875 472.751 118.154 469.216 106.759C424.494 140.294 382.284 171.945 368.65 182.141C335.769 206.731 291.55 246.624 284.632 238.073C277.714 229.522 329.672 186.048 353.29 166.307C363.976 157.362 409.653 117.4 456.436 76.3247C451.713 67.6023 446.235 59.3084 440.021 51.5971C390.626 90.9419 342 129.79 331.146 138.872C309.07 157.328 255.571 202.07 248.67 193.519C241.769 184.968 288.786 148.537 318.869 120.468C332.001 108.249 374.06 69.1103 417.325 28.8402C408.933 22.1057 399.771 16.3137 389.922 11.7383C309.639 79.632 219.458 154.14 215.656 149.428C208.738 140.86 245.537 101.463 295.117 48.564C309.154 33.5527 324.346 17.1191 340.309 0.0685448C339.069 0.0342724 337.813 0.0171362 336.54 0.0171362C287.362 0.0171362 256.308 24.5562 238.301 46.7476C220.245 24.5391 189.191 0 139.996 0C56.2463 0 0 79.5291 0 153.815C0 261.961 202.607 406.882 225.706 423.042C229.491 425.681 233.88 427.017 238.251 427.017C242.623 427.017 247.011 425.698 250.797 423.042C270.847 409.024 426.001 298.067 466.721 198.3C455.13 205.754 443.924 212.952 433.355 219.806V219.789Z" fill="#FA0000"/>
</g>
<path d="M538.546 308.622C547.229 306.191 553.481 303.933 557.302 301.849C561.123 299.418 563.728 296.292 565.117 292.471C566.506 288.65 567.201 282.746 567.201 274.757V133.566C567.201 121.409 566.159 112.552 564.075 106.995C562.338 101.438 557.997 96.575 551.05 92.407L544.798 88.76L546.882 81.987C558.344 78.5137 572.585 75.735 589.604 73.651C606.623 71.2197 622.253 70.004 636.494 70.004C680.605 70.004 714.123 80.945 737.047 102.827C760.318 124.362 771.954 155.622 771.954 196.607C771.954 233.772 761.187 263.295 739.652 285.177C718.465 307.059 689.462 318 652.645 318H542.193L538.546 308.622ZM647.956 307.58C694.846 307.58 718.291 270.589 718.291 196.607C718.291 162.568 711.518 135.303 697.972 114.81C684.773 93.97 667.233 83.55 645.351 83.55C636.32 83.55 629.374 84.9393 624.511 87.718C619.648 90.4967 617.217 94.491 617.217 99.701V259.127C617.217 275.452 619.648 287.608 624.511 295.597C629.721 303.586 637.536 307.58 647.956 307.58ZM818.384 202.859C811.09 207.027 802.407 209.111 792.334 209.111C785.04 209.111 779.309 207.027 775.141 202.859C770.973 198.344 768.889 192.092 768.889 184.103C768.889 172.294 774.62 162.916 786.082 155.969C797.891 148.675 813.174 145.028 831.93 145.028C854.159 145.028 871.526 149.891 884.03 159.616C896.881 169.341 903.307 182.54 903.307 199.212V289.345C903.307 299.07 906.78 303.933 913.727 303.933C920.326 303.933 926.752 301.328 933.004 296.118L937.172 301.328C924.321 315.569 909.038 322.689 891.324 322.689C880.904 322.689 872.915 320.084 867.358 314.874C862.148 309.664 859.022 301.502 857.98 290.387H855.896C850.339 300.46 842.871 308.448 833.493 314.353C824.462 319.91 814.042 322.689 802.233 322.689C789.034 322.689 778.441 318.695 770.452 310.706C762.463 302.37 758.469 291.603 758.469 278.404C758.469 263.469 765.589 251.659 779.83 242.976C794.071 234.293 813.348 229.951 837.661 229.951C842.176 229.951 848.602 230.298 856.938 230.993V204.943C856.938 187.924 854.854 175.767 850.686 168.473C846.518 160.832 839.745 157.011 830.367 157.011C823.768 157.011 818.558 159.095 814.737 163.263C810.916 167.431 809.006 172.815 809.006 179.414C809.006 189.834 812.132 197.649 818.384 202.859ZM826.199 296.639C846.692 296.639 856.938 278.057 856.938 240.892C839.571 240.892 826.546 243.844 817.863 249.749C809.18 255.306 804.838 263.295 804.838 273.715C804.838 280.662 806.748 286.219 810.569 290.387C814.39 294.555 819.6 296.639 826.199 296.639ZM977.932 288.303C977.932 298.723 981.232 303.933 987.831 303.933C994.43 303.933 1000.86 301.328 1007.11 296.118L1011.28 301.328C998.425 315.569 983.316 322.689 965.949 322.689C953.445 322.689 944.414 319.563 938.857 313.311C933.3 306.712 930.521 296.118 930.521 281.53V178.372C930.521 173.509 928.263 171.078 923.748 171.078H907.597L906.034 165.347C912.981 159.442 921.664 154.58 932.084 150.759C942.504 146.938 952.924 145.028 963.344 145.028C967.512 145.028 970.985 146.07 973.764 148.154C976.543 150.238 977.932 153.017 977.932 156.49V288.303ZM925.311 95.012C925.311 88.76 928.784 81.8133 935.731 74.172C942.678 66.5307 949.103 62.71 955.008 62.71C961.26 62.71 967.859 66.5307 974.806 74.172C982.1 81.8133 985.747 88.76 985.747 95.012C985.747 101.611 982.1 108.732 974.806 116.373C967.859 123.667 961.26 127.314 955.008 127.314C949.103 127.314 942.678 123.667 935.731 116.373C928.784 108.732 925.311 101.611 925.311 95.012ZM1048.22 288.303C1048.22 298.723 1051.52 303.933 1058.12 303.933C1064.72 303.933 1071.15 301.328 1077.4 296.118L1081.57 301.328C1069.41 315.569 1054.3 322.689 1036.24 322.689C1024.08 322.689 1015.23 319.91 1009.67 314.353C1004.11 308.448 1001.33 299.244 1001.33 286.74V95.533C1001.33 90.6703 999.075 88.239 994.559 88.239H977.887L976.324 83.029C982.924 76.777 991.433 71.9143 1001.85 68.441C1012.62 64.6203 1023.21 62.71 1033.63 62.71C1038.15 62.71 1041.62 63.752 1044.05 65.836C1046.83 67.5727 1048.22 70.1777 1048.22 73.651V288.303ZM1226.97 146.07V318C1226.97 345.439 1218.98 366.627 1203 381.562C1187.37 396.845 1165.49 404.486 1137.35 404.486C1119.99 404.486 1105.92 401.186 1095.15 394.587C1084.39 387.988 1079 379.304 1079 368.537C1079 359.159 1081.78 351.518 1087.34 345.613C1092.9 340.056 1100.19 337.277 1109.22 337.277C1115.82 337.277 1122.25 338.666 1128.5 341.445C1122.25 347.697 1119.12 356.207 1119.12 366.974C1119.12 374.615 1121.38 380.867 1125.89 385.73C1130.75 390.593 1136.83 393.024 1144.13 393.024C1168.44 393.024 1180.6 373.226 1180.6 333.63V267.463C1176.08 280.662 1168.09 291.603 1156.63 300.286C1145.52 308.622 1133.53 312.79 1120.68 312.79C1105.4 312.79 1094.11 308.101 1086.82 298.723C1079.52 289.345 1075.88 275.104 1075.88 256.001V178.372C1075.88 173.509 1073.62 171.078 1069.1 171.078H1052.95L1051.39 165.347C1057.99 159.442 1066.67 154.58 1077.44 150.759C1088.21 146.938 1098.45 145.028 1108.18 145.028C1112.69 145.028 1116.17 146.07 1118.6 148.154C1121.38 150.238 1122.77 153.017 1122.77 156.49V261.732C1122.77 281.183 1128.84 290.908 1141 290.908C1152.81 290.908 1162.36 283.788 1169.66 269.547C1176.95 255.306 1180.6 236.377 1180.6 212.758C1180.6 200.254 1179.56 190.008 1177.47 182.019C1175.39 174.03 1172.09 167.084 1167.57 161.179L1163.4 155.448L1167.05 150.759L1226.97 146.07ZM1236.47 52.29C1243.77 48.4693 1252.45 46.559 1262.52 46.559C1270.86 46.559 1277.46 48.8167 1282.32 53.332C1287.53 57.5 1290.14 64.273 1290.14 73.651C1290.14 81.987 1287.71 90.323 1282.84 98.659C1277.98 106.648 1270.17 116.894 1259.4 129.398L1243.25 147.112L1229.18 137.734L1244.29 103.869C1247.42 97.617 1248.98 91.7123 1248.98 86.155C1248.98 79.2083 1246.03 73.3036 1240.12 68.441L1233.87 64.273L1232.31 54.374L1236.47 52.29ZM1323.21 180.456C1323.21 189.139 1326.51 196.26 1333.11 201.817C1340.06 207.027 1350.48 212.932 1364.37 219.531C1375.83 225.088 1384.69 229.951 1390.94 234.119C1397.19 237.94 1402.58 243.15 1407.09 249.749C1411.96 256.348 1414.39 264.163 1414.39 273.194C1414.39 288.129 1407.27 300.112 1393.03 309.143C1379.13 318.174 1360.38 322.689 1336.76 322.689C1319.04 322.689 1304.46 319.563 1292.99 313.311C1281.53 306.712 1275.8 298.202 1275.8 287.782C1275.8 280.835 1278.41 275.104 1283.62 270.589C1288.83 265.726 1295.25 263.295 1302.89 263.295C1308.8 263.295 1314.7 264.511 1320.61 266.942C1314.7 271.457 1311.75 278.751 1311.75 288.824C1311.75 295.771 1314.18 301.154 1319.04 304.975C1323.91 308.796 1329.81 310.706 1336.76 310.706C1344.75 310.706 1351.52 308.622 1357.08 304.454C1362.98 300.286 1365.93 294.381 1365.93 286.74C1365.93 279.446 1362.98 273.715 1357.08 269.547C1351.52 265.032 1342.66 259.822 1330.51 253.917C1319.39 248.707 1310.36 244.018 1303.41 239.85C1296.82 235.335 1291.08 229.43 1286.22 222.136C1281.36 214.842 1278.93 205.985 1278.93 195.565C1278.93 179.935 1285.53 167.605 1298.73 158.574C1311.92 149.543 1328.6 145.028 1348.74 145.028C1366.46 145.028 1380.87 148.328 1391.98 154.927C1403.45 161.526 1409.18 170.036 1409.18 180.456C1409.18 188.445 1406.75 194.349 1401.88 198.17C1397.02 201.991 1390.77 203.901 1383.13 203.901C1375.83 203.901 1369.41 202.338 1363.85 199.212C1370.1 193.307 1373.23 185.84 1373.23 176.809C1373.23 170.904 1370.97 166.215 1366.46 162.742C1361.94 158.921 1356.04 157.011 1348.74 157.011C1340.75 157.011 1334.5 159.269 1329.99 163.784C1325.47 168.299 1323.21 173.857 1323.21 180.456Z" fill="white"/>
</g>
<defs>
<clipPath id="clip0_369_14">
<rect width="1417" height="427" fill="white"/>
</clipPath>
<clipPath id="clip1_369_14">
<rect width="476" height="427" fill="white"/>
</clipPath>
</defs>
</svg>
